<svg width="32" height="26" viewBox="0 0 32 26" fill="none" xmlns="http://www.w3.org/2000/svg">
<path d="M17.6667 19.6673V3.00065C17.6667 2.08018 16.9205 1.33398 16 1.33398H2.66667C1.74619 1.33398 1 2.08018 1 3.00065V19.6673C1 20.5878 1.74619 21.334 2.66667 21.334H4.33333M17.6667 19.6673C17.6667 20.5878 16.9205 21.334 16 21.334H11M17.6667 19.6673L17.6667 6.33398C17.6667 5.41351 18.4129 4.66732 19.3333 4.66732H23.643C24.085 4.66732 24.5089 4.84291 24.8215 5.15547L30.5118 10.8458C30.8244 11.1584 31 11.5823 31 12.0243V19.6673C31 20.5878 30.2538 21.334 29.3333 21.334H27.6667M17.6667 19.6673C17.6667 20.5878 18.4129 21.334 19.3333 21.334H21M4.33333 21.334C4.33333 23.1749 5.82572 24.6673 7.66667 24.6673C9.50761 24.6673 11 23.1749 11 21.334M4.33333 21.334C4.33333 19.493 5.82572 18.0007 7.66667 18.0007C9.50761 18.0007 11 19.493 11 21.334M21 21.334C21 23.1749 22.4924 24.6673 24.3333 24.6673C26.1743 24.6673 27.6667 23.1749 27.6667 21.334M21 21.334C21 19.493 22.4924 18.0007 24.3333 18.0007C26.1743 18.0007 27.6667 19.493 27.6667 21.334" stroke="white" stroke-width="2"/>
</svg>
